name C:\Users\r0593348\3dpredictsim\Results\batch_windlass\Pog_s1_tmt_bCst_d05_k1500_WL40_ig24_pas.mot
datacolumns 128
datarows 4
range 1.66127619 1.69450171
endheader
time	pelvis_tilt	pelvis_list	pelvis_rotation	pelvis_tx	pelvis_ty	pelvis_tz	hip_flexion_l	hip_adduction_l	hip_rotation_l	hip_flexion_r	hip_adduction_r	hip_rotation_r	knee_angle_l	knee_angle_r	ankle_angle_l	ankle_angle_r	subtalar_angle_l	subtalar_angle_r	tmt_angle_l	tmt_angle_r	mtp_angle_l	mtp_angle_r	lumbar_extension	lumbar_bending	lumbar_rotation	arm_flex_l	arm_add_l	arm_rot_l	arm_flex_r	arm_add_r	arm_rot_r	elbow_flex_l	elbow_flex_r	pro_sup_l	pro_sup_r	glut_med1_l/activation	glut_med2_l/activation	glut_med3_l/activation	glut_min1_l/activation	glut_min2_l/activation	glut_min3_l/activation	semimem_l/activation	semiten_l/activation	bifemlh_l/activation	bifemsh_l/activation	sar_l/activation	add_long_l/activation	add_brev_l/activation	add_mag1_l/activation	add_mag2_l/activation	add_mag3_l/activation	tfl_l/activation	pect_l/activation	grac_l/activation	glut_max1_l/activation	glut_max2_l/activation	glut_max3_l/activation	iliacus_l/activation	psoas_l/activation	quad_fem_l/activation	gem_l/activation	peri_l/activation	rect_fem_l/activation	vas_med_l/activation	vas_int_l/activation	vas_lat_l/activation	med_gas_l/activation	lat_gas_l/activation	soleus_l/activation	tib_post_l/activation	flex_dig_l/activation	flex_hal_l/activation	tib_ant_l/activation	per_brev_l/activation	per_long_l/activation	per_tert_l/activation	ext_dig_l/activation	ext_hal_l/activation	ercspn_l/activation	intobl_l/activation	extobl_l/activation	glut_med1_r/activation	glut_med2_r/activation	glut_med3_r/activation	glut_min1_r/activation	glut_min2_r/activation	glut_min3_r/activation	semimem_r/activation	semiten_r/activation	bifemlh_r/activation	bifemsh_r/activation	sar_r/activation	add_long_r/activation	add_brev_r/activation	add_mag1_r/activation	add_mag2_r/activation	add_mag3_r/activation	tfl_r/activation	pect_r/activation	grac_r/activation	glut_max1_r/activation	glut_max2_r/activation	glut_max3_r/activation	iliacus_r/activation	psoas_r/activation	quad_fem_r/activation	gem_r/activation	peri_r/activation	rect_fem_r/activation	vas_med_r/activation	vas_int_r/activation	vas_lat_r/activation	med_gas_r/activation	lat_gas_r/activation	soleus_r/activation	tib_post_r/activation	flex_dig_r/activation	flex_hal_r/activation	tib_ant_r/activation	per_brev_r/activation	per_long_r/activation	per_tert_r/activation	ext_dig_r/activation	ext_hal_r/activation	ercspn_r/activation	intobl_r/activation	extobl_r/activation	
          1.66127619	         -2.92338821	          1.94578371	         -6.17744055	          2.07659524	          0.86000263	          0.00229487	         31.56410259	          2.35326795	         -3.03536236	        -17.56137133	         -1.97573830	          7.32936852	        -16.93462953	         -9.53649870	          5.47796977	          1.78711780	          0.43867605	         13.56688380	         -0.46190506	        -12.86250403	          0.98244764	         30.23454639	         -1.19476617	         -0.25845189	          2.14031926	        -12.29016596	        -13.58339009	          5.86150878	          6.36116794	        -13.46042810	         15.88443424	         17.32435214	         40.08921570	         86.51662706	         86.51662706	          0.05000009	          0.05527633	          0.05000008	          0.05000009	          0.05000015	          0.05000194	          0.05909662	          0.05922932	          0.19386015	          0.05000752	          0.05000030	          0.08506688	          0.10620101	          0.12798715	          0.15843489	          0.13384099	          0.05000055	          0.05000065	          0.05922944	          0.05922942	          0.09646925	          0.12141959	          0.06279197	          0.06592668	          0.19611626	          0.05000016	          0.05000027	          0.05268605	          0.11386177	          0.12272603	          0.09579791	          0.05000033	          0.05922926	          0.05877571	          0.05213276	          0.05922962	          0.05922977	          0.50050774	          0.37325975	          0.20865622	          0.13708813	          0.54694122	          0.21474194	          0.05436978	          0.09218785	          0.11447903	          0.26143628	          0.09270368	          0.05000002	          0.28777433	          0.19241282	          0.09336989	          0.05000116	          0.05000013	          0.05000009	          0.06899726	          0.07709320	          0.14677746	          0.05483604	          0.05000092	          0.05000119	          0.05000162	          0.27396473	          0.06051821	          0.05000017	          0.05000075	          0.05000055	          0.05000045	          0.29318610	          0.52570063	          0.05000004	          0.05000020	          0.05000006	          0.24616245	          0.09907081	          0.11507776	          0.05000094	          0.26229771	          0.33759896	          0.20214383	          0.19854259	          0.19721751	          0.25947739	          0.05000000	          0.16046451	          0.19717327	          0.05000004	          0.05000001	          0.05000003	          0.05000000	          0.05000002	          0.05000001	
          1.67235136	         -2.91183504	          2.00535911	         -6.40186930	          2.09379664	          0.85909524	          0.00206753	         30.89025357	          2.72397254	         -2.81949314	        -17.31471995	         -2.23155571	          7.11205869	        -16.48002016	        -11.61572252	          5.10614927	          0.57515901	         -0.06319191	         14.40511342	         -0.52922831	        -13.28162620	          1.12378661	         30.95459478	         -0.96223701	         -0.49024063	          2.22441981	        -13.45910668	        -13.56487049	          5.75149272	          6.07610570	        -13.48362818	         16.11398232	         17.29631886	         41.18296027	         86.51662706	         86.51662706	          0.05478041	          0.05000028	          0.29366713	          0.05922936	          0.05922932	          0.05000039	          0.05000003	          0.05000004	          0.19106597	          0.05000002	          0.05000027	          0.09845519	          0.28033247	          0.28846384	          0.20875449	          0.15197790	          0.05000005	          0.08311146	          0.05000032	          0.05000013	          0.08143710	          0.17827574	          0.05922932	          0.05922923	          0.16555679	          0.14979253	          0.11475769	          0.07016208	          0.22452553	          0.21937402	          0.18761978	          0.05000000	          0.05000001	          0.05000001	          0.05000001	          0.05000030	          0.05000043	          0.67027351	          0.31509725	          0.17614273	          0.50360128	          0.62693763	          0.36317142	          0.05039418	          0.07782283	          0.09664052	          0.22069841	          0.07825829	          0.05000003	          0.24293239	          0.16243043	          0.07882071	          0.05000028	          0.05000004	          0.05000003	          0.05824590	          0.06508035	          0.19309740	          0.25370771	          0.07856777	          0.05000083	          0.05000009	          0.23127475	          0.11823130	          0.05001038	          0.05000041	          0.05000025	          0.05000017	          0.24750087	          0.47460917	          0.05000014	          0.05000032	          0.05000012	          0.20780460	          0.08435824	          0.10164270	          0.13741119	          0.22142560	          0.28499315	          0.17064509	          0.16760503	          0.16648646	          0.21904478	          0.08401888	          0.13546041	          0.16644909	          0.05000009	          0.12255867	          0.05000020	          0.05686532	          0.05000017	          0.05000001	
          1.68342654	         -2.89486459	          2.06706095	         -6.59682906	          2.11121531	          0.85790384	          0.00184910	         30.08452919	          3.07404205	         -2.52956259	        -16.97620436	         -2.46877565	          6.88562392	        -16.59744159	        -13.90601938	          4.66168850	         -0.63727387	         -0.56680456	         15.17118516	         -0.65506217	        -13.39596830	          1.34834731	         30.91960306	         -0.71494546	         -0.73151110	          2.29707133	        -14.59818253	        -13.55622423	          5.72211119	          5.71894733	        -13.51547419	         16.27352722	         17.22267650	         42.25292491	         86.51662706	         86.51662706	          0.05000001	          0.05000006	          0.24790700	          0.05000005	          0.05000004	          0.05000007	          0.06151964	          0.06173993	          0.16129348	          0.05000003	          0.05000010	          0.08311359	          0.23665015	          0.31381015	          0.28571376	          0.18317929	          0.05000014	          0.07016109	          0.12511564	          0.15985810	          0.15022689	          0.15876246	          0.05000002	          0.05000003	          0.26208922	          0.12645137	          0.09687578	          0.05922922	          0.25491655	          0.25543257	          0.21565631	          0.05000021	          0.05000009	          0.05000000	          0.05000000	          0.05742911	          0.05000033	          0.56582924	          0.35846446	          0.18236040	          0.61875719	          0.58946596	          0.30658085	          0.05000000	          0.06569622	          0.08158167	          0.18630845	          0.06606384	          0.05210646	          0.20507787	          0.13711999	          0.06653863	          0.05000466	          0.05000064	          0.05922953	          0.05000001	          0.05493935	          0.22998895	          0.38833856	          0.24452957	          0.12332471	          0.13815668	          0.19523683	          0.09980822	          0.05000443	          0.05010572	          0.05922954	          0.07016079	          0.20893446	          0.42359022	          0.06407331	          0.05922997	          0.05776584	          0.17542379	          0.10137052	          0.11650694	          0.11599947	          0.18692231	          0.24058456	          0.14405459	          0.14148827	          0.14054403	          0.18491252	          0.18825323	          0.11435281	          0.16871709	          0.05000074	          0.21397401	          0.11811934	          0.07537424	          0.05922938	          0.05922934	
          1.69450171	         -2.87423318	          2.13373839	         -6.75713540	          2.12866924	          0.85644452	          0.00164167	         29.12111091	          3.38264925	         -2.20902766	        -16.52129220	         -2.68366318	          6.66682721	        -16.96489142	        -16.44387144	          4.47694660	         -1.75475627	         -1.11744409	         15.84572647	         -0.84324687	        -12.99384306	          1.50326768	         29.67488552	         -0.46892016	         -0.98322309	          2.35581851	        -15.66554762	        -13.56380541	          5.80796167	          5.31819000	        -13.55399947	         16.37490872	         17.07698470	         43.28908506	         86.51662706	         86.51662706	          0.28517702	          0.34572706	          0.53380915	          0.38187564	          0.24267578	          0.34454591	          0.08296512	          0.11697362	          0.13616040	          0.07016224	          0.05000028	          0.07016256	          0.19977453	          0.26491123	          0.24119293	          0.16562988	          0.05000007	          0.05922946	          0.10561996	          0.27137696	          0.20700917	          0.14996122	          0.05000216	          0.05000015	          0.22124962	          0.10674740	          0.30244917	          0.05000001	          0.22995121	          0.26702470	          0.20982170	          0.05000003	          0.05000007	          0.05000055	          0.05000000	          0.05000006	          0.05000011	          0.69295414	          0.30260732	          0.15394439	          0.63466290	          0.63316672	          0.42008703	          0.06602196	          0.08310630	          0.06886934	          0.22351420	          0.05576958	          0.05000003	          0.21330977	          0.11575360	          0.05617050	          0.05000685	          0.05000012	          0.05000024	          0.05000024	          0.07016129	          0.19415132	          0.32782635	          0.20642616	          0.10410789	          0.11662866	          0.28361117	          0.08425586	          0.05013374	          0.05000058	          0.05000056	          0.05922815	          0.17637771	          0.40612076	          0.05408921	          0.05000067	          0.05000006	          0.14808867	          0.08557464	          0.09835244	          0.09792405	          0.15779544	          0.20309586	          0.12160752	          0.12093125	          0.11864407	          0.15609896	          0.18660003	          0.12318806	          0.14508430	          0.09407616	          0.23588476	          0.09971366	          0.09945542	          0.05000006	          0.05000004	
